<?xml version="1.0" encoding="UTF-8" standalone="no"?>
<!-- Created with Inkscape (http://www.inkscape.org/) -->

<svg
   xmlns:dc="http://purl.org/dc/elements/1.1/"
   xmlns:cc="http://creativecommons.org/ns#"
   xmlns:rdf="http://www.w3.org/1999/02/22-rdf-syntax-ns#"
   xmlns:svg="http://www.w3.org/2000/svg"
   xmlns="http://www.w3.org/2000/svg"
   xmlns:sodipodi="http://sodipodi.sourceforge.net/DTD/sodipodi-0.dtd"
   xmlns:inkscape="http://www.inkscape.org/namespaces/inkscape"
   width="69.456421mm"
   height="74.962914mm"
   viewBox="0 0 246.10543 265.61663"
   id="svg7616"
   version="1.1"
   inkscape:version="0.91 r13725"
   sodipodi:docname="web.svg">
  <defs
     id="defs7618" />
  <sodipodi:namedview
     id="base"
     pagecolor="#ffffff"
     bordercolor="#666666"
     borderopacity="1.0"
     inkscape:pageopacity="0.0"
     inkscape:pageshadow="2"
     inkscape:zoom="1.4"
     inkscape:cx="290.4275"
     inkscape:cy="159.84323"
     inkscape:document-units="px"
     inkscape:current-layer="g8264"
     showgrid="false"
     inkscape:window-width="1680"
     inkscape:window-height="969"
     inkscape:window-x="0"
     inkscape:window-y="38"
     inkscape:window-maximized="1"
     fit-margin-top="0"
     fit-margin-left="0"
     fit-margin-right="0"
     fit-margin-bottom="0" />
  <metadata
     id="metadata7621">
    <rdf:RDF>
      <cc:Work
         rdf:about="">
        <dc:format>image/svg+xml</dc:format>
        <dc:type
           rdf:resource="http://purl.org/dc/dcmitype/StillImage" />
        <dc:title></dc:title>
      </cc:Work>
    </rdf:RDF>
  </metadata>
  <g
     inkscape:label="Layer 1"
     inkscape:groupmode="layer"
     id="layer1"
     transform="translate(-135.22929,-299.57155)">
    <path
       style="fill:#7db347;fill-opacity:1;stroke:#000000;stroke-width:1.60532761;stroke-linecap:butt;stroke-linejoin:miter;stroke-miterlimit:4;stroke-dasharray:none;stroke-opacity:1"
       d="m 220.82163,325.75963 c 1.3948,-17.59522 -30.76599,-28.56643 -37.30692,-0.37683 -3.44248,42.22875 4.08204,35.3116 4.57564,43.42775 11.85313,24.34564 18.31305,32.52434 27.98242,38.72662 24.03297,10.02142 54.5326,-3.08344 61.95299,-20.01598 0.274,-0.62523 -8.55292,2.49382 -8.92764,0.82164 -0.3183,-1.42035 10.45356,-5.25706 8.8974,-5.82041 -2.9308,-1.06098 -11.4271,2.32466 -10.92463,1.52827 1.3642,-2.16219 5.62754,-6.05213 6.01456,-8.04399 -23.55409,14.84638 -31.68569,18.65112 -46.45725,-1.70895 -0.75722,-3.97864 -8.43352,-4.62549 -5.80657,-48.53812 z"
       id="path3996-1-1-1"
       inkscape:connector-curvature="0"
       sodipodi:nodetypes="ccccssssccc" />
    <ellipse
       ry="16.072813"
       rx="9.8114901"
       cy="330.6788"
       cx="-204.58031"
       id="path2985-9-7-2-0-7"
       style="fill:#ffffff;fill-opacity:1;fill-rule:nonzero;stroke:#000000;stroke-width:1.38413799;stroke-linejoin:round;stroke-miterlimit:4;stroke-dasharray:none;stroke-dashoffset:0;stroke-opacity:1"
       transform="scale(-1,1)" />
    <ellipse
       ry="7.336412"
       rx="4.4337211"
       cy="336.97748"
       cx="-203.26805"
       style="fill:#000000;fill-opacity:1;stroke:#000000;stroke-width:1.3917582;stroke-linejoin:round;stroke-miterlimit:4;stroke-dasharray:none;stroke-dashoffset:0;stroke-opacity:1"
       id="path3155-30-4-4"
       transform="scale(-1,1)" />
    <ellipse
       ry="15.947084"
       rx="8.6815205"
       cy="330.10013"
       cx="185.57423"
       id="path2985-9-7-1-3-8-0"
       style="fill:#ffffff;fill-opacity:1;fill-rule:nonzero;stroke:#000000;stroke-width:1.29689419;stroke-linejoin:round;stroke-miterlimit:4;stroke-dasharray:none;stroke-dashoffset:0;stroke-opacity:1" />
    <path
       style="fill:none;stroke:#000000;stroke-width:1.60532761;stroke-linecap:butt;stroke-linejoin:miter;stroke-miterlimit:4;stroke-dasharray:none;stroke-opacity:1"
       d="m 223.46751,306.69364 c -4.11069,-5.388 -10.76445,-5.58194 -15.73548,-4.43384"
       id="path3948-4-4-9"
       inkscape:connector-curvature="0"
       sodipodi:nodetypes="cc" />
    <path
       style="fill:none;stroke:#000000;stroke-width:1.60532761;stroke-linecap:butt;stroke-linejoin:miter;stroke-miterlimit:4;stroke-dasharray:none;stroke-opacity:1"
       d="m 181.18952,304.70722 c 4.16589,-4.66575 10.90905,-4.83366 15.94688,-3.83948"
       id="path3948-0-3-4-4"
       inkscape:connector-curvature="0"
       sodipodi:nodetypes="cc" />
    <ellipse
       ry="7.336412"
       rx="4.4337211"
       cy="336.93451"
       cx="-186.27657"
       style="fill:#000000;fill-opacity:1;stroke:#000000;stroke-width:1.3917582;stroke-linejoin:round;stroke-miterlimit:4;stroke-dasharray:none;stroke-dashoffset:0;stroke-opacity:1"
       id="path3155-3-7-7-8"
       transform="scale(-1,1)" />
    <path
       style="fill:#7db347;fill-opacity:1;stroke:#000000;stroke-width:1.60532761;stroke-linecap:butt;stroke-linejoin:miter;stroke-miterlimit:4;stroke-dasharray:none;stroke-opacity:1"
       d="m 221.1009,355.99722 c 12.60475,-15.09651 57.86932,-20.49432 55.06399,-16.2987 -2.56791,8.30068 -9.21171,14.00763 -19.59554,17.33452 1.76948,5.32159 -2.51631,6.57064 -6.02941,7.53675 -1.20394,7.67592 -6.34232,4.86002 -10.55144,4.52205 -2.02256,5.16091 -13.42597,0.50432 -16.13021,-0.47023 -1.19834,-4.20814 -2.88355,-8.41626 -2.75739,-12.62439 z"
       id="path4148-4"
       inkscape:connector-curvature="0"
       sodipodi:nodetypes="ccccccc" />
    <path
       style="fill:none;stroke:#000000;stroke-width:1.60532761;stroke-linecap:butt;stroke-linejoin:miter;stroke-miterlimit:4;stroke-dasharray:none;stroke-opacity:1"
       d="m 256.69238,357.04586 c -4.95744,0.89044 -7.07185,-0.1874 -9.85918,-0.79939"
       id="path4150-5"
       inkscape:connector-curvature="0"
       sodipodi:nodetypes="cc" />
    <path
       style="fill:none;stroke:#000000;stroke-width:1.60532761;stroke-linecap:butt;stroke-linejoin:miter;stroke-miterlimit:4;stroke-dasharray:none;stroke-opacity:1"
       d="m 250.56374,364.64011 c -3.23358,-0.0639 -4.75527,-0.4701 -5.32931,-1.06586"
       id="path4152-5"
       inkscape:connector-curvature="0"
       sodipodi:nodetypes="cc" />
    <path
       style="fill:none;stroke:#000000;stroke-width:1.60532761;stroke-linecap:butt;stroke-linejoin:miter;stroke-miterlimit:4;stroke-dasharray:none;stroke-opacity:1"
       d="m 240.03836,369.17 c -5.70707,-1.31502 -3.91392,-1.88279 -3.93032,-1.93188"
       id="path4156-1"
       inkscape:connector-curvature="0"
       sodipodi:nodetypes="cc" />
    <path
       style="fill:#7db347;fill-opacity:1;stroke:#000000;stroke-width:1.60532761;stroke-linecap:butt;stroke-linejoin:miter;stroke-miterlimit:4;stroke-dasharray:none;stroke-opacity:1"
       d="m 191.22083,358.87308 c -12.60481,-15.0965 -57.8693,-20.49434 -55.064,-16.29871 2.56789,8.30068 9.21172,14.00763 19.59555,17.33453 -1.76953,5.32158 2.51632,6.57064 6.02941,7.53675 1.20393,7.67592 6.34226,4.86002 10.55143,4.52205 2.02257,5.16092 13.42598,0.50432 16.13022,-0.47024 1.19834,-4.20812 2.88355,-8.41625 2.75739,-12.62438 z"
       id="path4148-7-7"
       inkscape:connector-curvature="0"
       sodipodi:nodetypes="ccccccc" />
    <g
       id="g8258">
      <g
         id="g8264"
         transform="translate(19.697975,11.111678)">
        <circle
           style="fill:#6cb2ea;fill-opacity:1;stroke:#000000;stroke-width:2;stroke-miterlimit:4;stroke-dasharray:none;stroke-opacity:1"
           id="path8164"
           cx="259.64285"
           cy="453.43362"
           r="99.64286" />
        <path
           style="fill:#fff4d3;fill-opacity:1;fill-rule:evenodd;stroke:#000000;stroke-width:1px;stroke-linecap:butt;stroke-linejoin:miter;stroke-opacity:1"
           d="m 192.43406,387.17675 c 8.70932,-5.70461 17.21546,-7.54895 25.25381,-0.50507 l -4.04061,7.57614 -3.03045,9.09137 c 0,0 3.03045,3.03046 10.6066,1.51523 7.57614,-1.51523 15.65736,-6.06091 13.13198,-8.08122 -2.52538,-2.0203 2.52538,-10.10152 2.52538,-10.10152 0,0 13.63706,6.06091 14.14214,8.08122 0.50507,2.0203 -2.02031,3.53553 -2.52538,8.58629 -0.50508,5.05077 3.03045,7.57615 -4.04061,8.5863 -7.07107,1.01015 -9.09138,0.50508 -15.65737,2.52538 -6.56599,2.02031 -13.13198,3.53554 -13.13198,3.53554 0,0 0,6.56599 2.0203,6.56599 2.02031,0 6.06092,-2.52538 6.06092,-2.52538 0,0 2.0203,5.55584 -2.02031,9.59645 -4.04061,4.04061 -9.09137,6.56599 -9.09137,6.56599 -10.80253,1.56738 -14.07376,0.81292 -19.1929,2.0203 l -13.13198,0.50508 c 0,0 1.51523,2.52538 2.0203,4.54568 0.50508,2.02031 0,7.57615 -2.52538,8.5863 -2.52538,1.01015 -3.91971,-1.77925 -7.57614,2.02031 -9.12821,9.48553 0.97672,13.73516 6.06091,11.61675 0,0 -3.66032,-5.87469 6.06092,0.50508 5.83634,3.83022 2.79779,10.14975 22.22336,-0.50508 4.01005,-2.1995 7.56068,-0.43182 11.11167,2.02031 3.28641,2.26942 -0.17459,3.71012 7.07107,6.56599 7.42967,2.92839 4.04061,12.12183 4.54569,15.65736 0.50507,3.53554 -3.82063,2.89127 -1.01015,7.57615 3.6521,6.08781 -1.21352,5.85857 -5.55584,8.58629 -3.6291,2.27969 5.32837,-6.4846 -5.55584,5.05077 -11.71365,12.41444 -6.06787,19.33899 -4.04061,22.72843 1.63969,2.74144 4.04061,9.59645 4.04061,9.59645 -14.30248,-8.38816 -27.8959,-18.39704 -38.89088,-34.34519 -8.09407,-12.67446 -16.89553,-29.46511 -17.93021,-46.84583 -0.48185,-15.67873 -1.44546,-25.5711 7.07107,-49.3712 4.79912,-12.30347 11.69597,-22.31168 25.00128,-27.52666 z"
           id="path8185"
           inkscape:connector-curvature="0"
           sodipodi:nodetypes="ccccsscsssscscscccssscsssssssssccccc" />
        <path
           style="fill:#fff4d3;fill-opacity:1;fill-rule:evenodd;stroke:#000000;stroke-width:0.77862322px;stroke-linecap:butt;stroke-linejoin:miter;stroke-opacity:1"
           d="m 274.41445,385.73239 c 0,0 -2.7086,0.30264 -6.38974,4.25405 -3.68115,3.95141 -1.92486,9.27962 -8.92507,9.7904 -6.41384,0.46799 5.90599,12.05201 6.87459,13.96336 0,0 -6.07686,-0.57721 1.04206,-4.22754 7.11892,-3.65033 7.88301,-5.56286 7.88301,-5.56286 4.19528,-6.34999 5.41854,-10.70829 2.258,-12.12882 0,0 -0.65969,-1.18246 -0.69427,-3.11995 -0.0346,-1.93748 -2.04858,-2.96864 -2.04858,-2.96864 z"
           id="path8187"
           inkscape:connector-curvature="0"
           sodipodi:nodetypes="csscsccsc" />
        <path
           style="fill:#fff4d3;fill-opacity:1;fill-rule:evenodd;stroke:#000000;stroke-width:1px;stroke-linecap:butt;stroke-linejoin:miter;stroke-opacity:1"
           d="m 259.10413,451.82652 c 0,0 -7.57615,4.04061 -7.57615,8.08122 0,4.04061 2.02031,8.08122 5.05077,8.58629 3.03045,0.50508 6.06091,3.03046 8.58629,0 2.52538,-3.03045 0.50508,-4.54568 3.53554,-7.07106 3.03045,-2.52539 6.56599,-4.04061 6.56599,-4.04061 l -0.50508,3.03045 c 0,0 3.03046,4.54569 6.56599,5.05077 3.53554,0.50507 4.04061,4.04061 5.05077,-1.01016 1.01015,-5.05076 -10.6066,-14.14213 2.0203,-7.07106 12.62691,7.07106 15.15229,9.59644 15.15229,9.59644 0,0 -4.54569,-6.56599 3.03046,-2.52538 7.57614,4.04061 12.12183,7.07107 9.09137,11.11168 -3.03046,4.04061 -5.55584,3.53553 -11.61675,4.04061 -6.06092,0.50508 -2.02031,0.50508 -12.12183,0.50508 -10.10153,0 -15.15229,-0.50508 -17.67767,-1.51523 -2.52539,-1.01015 -4.54569,-4.04061 -10.10153,-2.02031 -5.55584,2.02031 -13.63706,-3.53553 -14.64721,4.54569 -1.01015,8.08122 -1.01015,9.09137 -1.01015,11.11168 0,2.0203 -0.50508,-0.50508 2.0203,5.05076 2.52538,5.55584 0.50508,6.56599 5.55584,9.09137 5.05076,2.52539 1.01015,2.02031 7.07107,3.03046 6.06091,1.01015 8.08122,2.52538 15.15229,2.02031 7.07106,-0.50508 6.06091,-3.03046 10.10152,1.51523 4.04061,4.54568 4.04061,4.04061 4.54569,8.58629 0.50507,4.54569 -9.09137,-5.05076 0,9.59645 9.09137,14.64721 8.20748,12.37437 8.20748,12.37437 14.57798,-6.3417 18.26266,-10.50473 23.10725,-14.89975 l -8.08122,-27.27412 3.53553,-4.54569 4.54569,-9.09137 c 0,0 7.57614,-2.0203 10.10152,0 2.52538,2.02031 0.50508,0 3.53554,4.04061 3.03045,4.04061 6.82848,2.49632 7.57614,6.06092 1.89847,9.05128 11.47871,-13.44253 13.32221,-29.88388 0.71713,-6.3958 0.43476,-10.8999 0.44112,-14.43656 -0.37988,-2.24131 -0.19959,-21.95893 -8.12083,-40.35381 -5.4077,-10.31864 -11.06769,-20.46067 -19.78463,-28.46284 l -7.07107,2.52538 c 0,0 2.0203,-1.01015 -2.02031,4.54569 -4.04061,5.55584 -3.61609,8.98582 -7.07107,8.08122 -8.40653,-2.20103 -22.24771,-1.30428 -21.71828,-1.01015 -1.13484,-0.18914 -2.2897,15.12703 5.05077,10.6066 3.53759,-2.17853 8.73497,-0.0835 6.56599,5.55584 -0.14851,10.86843 -7.23958,5.86817 -11.61676,7.07107 0,0 -1.77789,2.22725 -3.53553,4.04061 -1.68044,1.73371 3.50833,8.20804 -6.06091,5.55584 -2.83809,-0.7866 -8.5863,2.52538 -3.53554,6.06091 5.05076,3.53553 5.55584,3.53553 5.55584,3.53553 0,0 -1.01015,5.55584 -8.08122,5.05077 -7.07107,-0.50508 -9.59645,-3.53554 -12.12183,-4.04061 -2.52538,-0.50508 -10.6066,-2.02031 -10.6066,-2.02031 l -1.01015,7.57615 8.58629,3.53553 -2.52538,2.52538 z"
           id="path8189"
           inkscape:connector-curvature="0"
           sodipodi:nodetypes="cssssccssscssssssssssssssscccccssssccccsscsccssscssccccc" />
      </g>
    </g>
    <path
       style="fill:#ffff86;fill-opacity:1;stroke:#000000;stroke-width:1.60532761;stroke-linecap:butt;stroke-linejoin:miter;stroke-miterlimit:4;stroke-dasharray:none;stroke-opacity:1"
       d="m 207.88271,353.6558 c -4.60354,-7.60397 -11.24197,-12.60565 -21.79626,-6.4711 -15.60286,18.09398 -6.14793,58.15874 8.7395,64.0274 -4.80933,-16.1815 9.32892,-18.28788 13.05676,-57.5563 z"
       id="path3946-8-9-1"
       inkscape:connector-curvature="0"
       sodipodi:nodetypes="cccc" />
  </g>
</svg>
